<?xml version="1.0"?>
<!-- Generated by SVGo -->
<svg width="295.752mm" height="105.252mm"
     viewBox="0.000 0.000 295.752 105.252"
     xmlns="http://www.w3.org/2000/svg" 
     xmlns:xlink="http://www.w3.org/1999/xlink">
<polygon points="290.752,100.251 5.001,100.251 5.001,5.001 290.752,5.001" style="fill:none;stroke-width:0.050000mm;stroke:black"/>
<polygon points="128.968,83.726 128.968,88.426 89.344,88.426 89.344,85.196 82.594,85.196 82.594,88.426 81.769,88.426 81.769,91.226 82.594,91.226 82.594,97.495 84.319,97.495 84.319,98.696 87.619,98.696 87.619,97.495 89.344,97.495 89.344,93.025 128.968,93.025 128.968,97.726 142.969,97.726 142.969,93.025 182.594,93.025 182.594,97.495 184.319,97.495 184.319,98.696 187.619,98.696 187.619,97.495 189.344,97.495 189.344,91.226 190.169,91.226 190.169,88.426 189.344,88.426 189.344,85.196 182.594,85.196 182.594,88.426 142.969,88.426 142.969,83.726" style="fill:none;stroke-width:0.050000mm;stroke:black"/>
<polygon points="9.907,83.726 9.907,97.726 23.907,97.726 23.907,83.726" style="fill:none;stroke-width:0.050000mm;stroke:black"/>
<polygon points="33.719,83.726 33.719,97.726 47.719,97.726 47.719,83.726" style="fill:none;stroke-width:0.050000mm;stroke:black"/>
<polygon points="57.532,83.726 57.532,97.726 71.532,97.726 71.532,83.726" style="fill:none;stroke-width:0.050000mm;stroke:black"/>
<polygon points="200.407,83.726 200.407,97.726 214.407,97.726 214.407,83.726" style="fill:none;stroke-width:0.050000mm;stroke:black"/>
<polygon points="224.219,83.726 224.219,97.726 238.219,97.726 238.219,83.726" style="fill:none;stroke-width:0.050000mm;stroke:black"/>
<polygon points="248.032,83.726 248.032,97.726 262.032,97.726 262.032,83.726" style="fill:none;stroke-width:0.050000mm;stroke:black"/>
<polygon points="271.844,83.726 271.844,97.726 285.844,97.726 285.844,83.726" style="fill:none;stroke-width:0.050000mm;stroke:black"/>
<polygon points="19.432,64.676 19.432,69.376 17.907,69.376 17.907,66.146 11.157,66.146 11.157,69.376 10.332,69.376 10.332,72.176 11.157,72.176 11.157,78.446 12.882,78.446 12.882,79.646 16.182,79.646 16.182,78.446 17.907,78.446 17.907,73.976 19.432,73.976 19.432,78.676 33.432,78.676 33.432,73.976 34.957,73.976 34.957,78.446 36.682,78.446 36.682,79.646 39.982,79.646 39.982,78.446 41.707,78.446 41.707,72.176 42.532,72.176 42.532,69.376 41.707,69.376 41.707,66.146 34.957,66.146 34.957,69.376 33.432,69.376 33.432,64.676" style="fill:none;stroke-width:0.050000mm;stroke:black"/>
<polygon points="257.556,64.676 257.556,69.376 256.032,69.376 256.032,66.146 249.282,66.146 249.282,69.376 248.457,69.376 248.457,72.176 249.282,72.176 249.282,78.446 251.007,78.446 251.007,79.646 254.307,79.646 254.307,78.446 256.032,78.446 256.032,73.976 257.556,73.976 257.556,78.676 271.557,78.676 271.557,73.976 273.082,73.976 273.082,78.446 274.807,78.446 274.807,79.646 278.107,79.646 278.107,78.446 279.832,78.446 279.832,72.176 280.657,72.176 280.657,69.376 279.832,69.376 279.832,66.146 273.082,66.146 273.082,69.376 271.557,69.376 271.557,64.676" style="fill:none;stroke-width:0.050000mm;stroke:black"/>
<polygon points="50.388,64.676 50.388,78.676 64.388,78.676 64.388,64.676" style="fill:none;stroke-width:0.050000mm;stroke:black"/>
<polygon points="69.438,64.676 69.438,78.676 83.438,78.676 83.438,64.676" style="fill:none;stroke-width:0.050000mm;stroke:black"/>
<polygon points="88.488,64.676 88.488,78.676 102.488,78.676 102.488,64.676" style="fill:none;stroke-width:0.050000mm;stroke:black"/>
<polygon points="107.538,64.676 107.538,78.676 121.538,78.676 121.538,64.676" style="fill:none;stroke-width:0.050000mm;stroke:black"/>
<polygon points="126.588,64.676 126.588,78.676 140.588,78.676 140.588,64.676" style="fill:none;stroke-width:0.050000mm;stroke:black"/>
<polygon points="145.638,64.676 145.638,78.676 159.638,78.676 159.638,64.676" style="fill:none;stroke-width:0.050000mm;stroke:black"/>
<polygon points="164.688,64.676 164.688,78.676 178.688,78.676 178.688,64.676" style="fill:none;stroke-width:0.050000mm;stroke:black"/>
<polygon points="183.738,64.676 183.738,78.676 197.738,78.676 197.738,64.676" style="fill:none;stroke-width:0.050000mm;stroke:black"/>
<polygon points="202.788,64.676 202.788,78.676 216.788,78.676 216.788,64.676" style="fill:none;stroke-width:0.050000mm;stroke:black"/>
<polygon points="221.838,64.676 221.838,78.676 235.838,78.676 235.838,64.676" style="fill:none;stroke-width:0.050000mm;stroke:black"/>
<polygon points="262.319,45.626 262.319,50.326 260.794,50.326 260.794,47.096 254.044,47.096 254.044,50.326 253.219,50.326 253.219,53.126 254.044,53.126 254.044,59.395 255.769,59.395 255.769,60.596 259.068,60.596 259.068,59.395 260.794,59.395 260.794,54.926 262.319,54.926 262.319,59.626 276.319,59.626 276.319,54.926 277.844,54.926 277.844,59.395 279.569,59.395 279.569,60.596 282.869,60.596 282.869,59.395 284.594,59.395 284.594,53.126 285.419,53.126 285.419,50.326 284.594,50.326 284.594,47.096 277.844,47.096 277.844,50.326 276.319,50.326 276.319,45.626" style="fill:none;stroke-width:0.050000mm;stroke:black"/>
<polygon points="14.669,45.626 14.669,59.626 28.669,59.626 28.669,45.626" style="fill:none;stroke-width:0.050000mm;stroke:black"/>
<polygon points="40.863,45.626 40.863,59.626 54.863,59.626 54.863,45.626" style="fill:none;stroke-width:0.050000mm;stroke:black"/>
<polygon points="59.913,45.626 59.913,59.626 73.913,59.626 73.913,45.626" style="fill:none;stroke-width:0.050000mm;stroke:black"/>
<polygon points="78.963,45.626 78.963,59.626 92.963,59.626 92.963,45.626" style="fill:none;stroke-width:0.050000mm;stroke:black"/>
<polygon points="98.013,45.626 98.013,59.626 112.013,59.626 112.013,45.626" style="fill:none;stroke-width:0.050000mm;stroke:black"/>
<polygon points="117.063,45.626 117.063,59.626 131.063,59.626 131.063,45.626" style="fill:none;stroke-width:0.050000mm;stroke:black"/>
<polygon points="136.113,45.626 136.113,59.626 150.113,59.626 150.113,45.626" style="fill:none;stroke-width:0.050000mm;stroke:black"/>
<polygon points="155.163,45.626 155.163,59.626 169.163,59.626 169.163,45.626" style="fill:none;stroke-width:0.050000mm;stroke:black"/>
<polygon points="174.213,45.626 174.213,59.626 188.213,59.626 188.213,45.626" style="fill:none;stroke-width:0.050000mm;stroke:black"/>
<polygon points="193.263,45.626 193.263,59.626 207.263,59.626 207.263,45.626" style="fill:none;stroke-width:0.050000mm;stroke:black"/>
<polygon points="212.313,45.626 212.313,59.626 226.313,59.626 226.313,45.626" style="fill:none;stroke-width:0.050000mm;stroke:black"/>
<polygon points="231.363,45.626 231.363,59.626 245.363,59.626 245.363,45.626" style="fill:none;stroke-width:0.050000mm;stroke:black"/>
<polygon points="12.288,26.576 12.288,40.576 26.288,40.576 26.288,26.576" style="fill:none;stroke-width:0.050000mm;stroke:black"/>
<polygon points="36.101,26.576 36.101,40.576 50.101,40.576 50.101,26.576" style="fill:none;stroke-width:0.050000mm;stroke:black"/>
<polygon points="55.151,26.576 55.151,40.576 69.151,40.576 69.151,26.576" style="fill:none;stroke-width:0.050000mm;stroke:black"/>
<polygon points="74.201,26.576 74.201,40.576 88.201,40.576 88.201,26.576" style="fill:none;stroke-width:0.050000mm;stroke:black"/>
<polygon points="93.251,26.576 93.251,40.576 107.251,40.576 107.251,26.576" style="fill:none;stroke-width:0.050000mm;stroke:black"/>
<polygon points="112.301,26.576 112.301,40.576 126.301,40.576 126.301,26.576" style="fill:none;stroke-width:0.050000mm;stroke:black"/>
<polygon points="131.351,26.576 131.351,40.576 145.351,40.576 145.351,26.576" style="fill:none;stroke-width:0.050000mm;stroke:black"/>
<polygon points="150.401,26.576 150.401,40.576 164.401,40.576 164.401,26.576" style="fill:none;stroke-width:0.050000mm;stroke:black"/>
<polygon points="169.451,26.576 169.451,40.576 183.451,40.576 183.451,26.576" style="fill:none;stroke-width:0.050000mm;stroke:black"/>
<polygon points="188.501,26.576 188.501,40.576 202.501,40.576 202.501,26.576" style="fill:none;stroke-width:0.050000mm;stroke:black"/>
<polygon points="207.551,26.576 207.551,40.576 221.551,40.576 221.551,26.576" style="fill:none;stroke-width:0.050000mm;stroke:black"/>
<polygon points="226.601,26.576 226.601,40.576 240.601,40.576 240.601,26.576" style="fill:none;stroke-width:0.050000mm;stroke:black"/>
<polygon points="245.651,26.576 245.651,40.576 259.650,40.576 259.650,26.576" style="fill:none;stroke-width:0.050000mm;stroke:black"/>
<polygon points="269.463,26.576 269.463,40.576 283.463,40.576 283.463,26.576" style="fill:none;stroke-width:0.050000mm;stroke:black"/>
<polygon points="264.701,7.526 264.701,12.226 263.176,12.226 263.176,8.996 256.426,8.996 256.426,12.226 255.601,12.226 255.601,15.026 256.426,15.026 256.426,21.296 258.150,21.296 258.150,22.496 261.451,22.496 261.451,21.296 263.176,21.296 263.176,16.826 264.701,16.826 264.701,21.526 278.701,21.526 278.701,16.826 280.226,16.826 280.226,21.296 281.951,21.296 281.951,22.496 285.251,22.496 285.251,21.296 286.976,21.296 286.976,15.026 287.801,15.026 287.801,12.226 286.976,12.226 286.976,8.996 280.226,8.996 280.226,12.226 278.701,12.226 278.701,7.526" style="fill:none;stroke-width:0.050000mm;stroke:black"/>
<polygon points="7.526,7.526 7.526,21.526 21.526,21.526 21.526,7.526" style="fill:none;stroke-width:0.050000mm;stroke:black"/>
<polygon points="26.576,7.526 26.576,21.526 40.576,21.526 40.576,7.526" style="fill:none;stroke-width:0.050000mm;stroke:black"/>
<polygon points="45.626,7.526 45.626,21.526 59.626,21.526 59.626,7.526" style="fill:none;stroke-width:0.050000mm;stroke:black"/>
<polygon points="64.676,7.526 64.676,21.526 78.676,21.526 78.676,7.526" style="fill:none;stroke-width:0.050000mm;stroke:black"/>
<polygon points="83.726,7.526 83.726,21.526 97.726,21.526 97.726,7.526" style="fill:none;stroke-width:0.050000mm;stroke:black"/>
<polygon points="102.775,7.526 102.775,21.526 116.775,21.526 116.775,7.526" style="fill:none;stroke-width:0.050000mm;stroke:black"/>
<polygon points="121.825,7.526 121.825,21.526 135.826,21.526 135.826,7.526" style="fill:none;stroke-width:0.050000mm;stroke:black"/>
<polygon points="140.876,7.526 140.876,21.526 154.876,21.526 154.876,7.526" style="fill:none;stroke-width:0.050000mm;stroke:black"/>
<polygon points="159.926,7.526 159.926,21.526 173.926,21.526 173.926,7.526" style="fill:none;stroke-width:0.050000mm;stroke:black"/>
<polygon points="178.976,7.526 178.976,21.526 192.976,21.526 192.976,7.526" style="fill:none;stroke-width:0.050000mm;stroke:black"/>
<polygon points="198.026,7.526 198.026,21.526 212.026,21.526 212.026,7.526" style="fill:none;stroke-width:0.050000mm;stroke:black"/>
<polygon points="217.076,7.526 217.076,21.526 231.076,21.526 231.076,7.526" style="fill:none;stroke-width:0.050000mm;stroke:black"/>
<polygon points="236.126,7.526 236.126,21.526 250.126,21.526 250.126,7.526" style="fill:none;stroke-width:0.050000mm;stroke:black"/>
</svg>
